HIERARCHY
ROOT Hips
{
	OFFSET 0.00000 0.00000 0.00000
	CHANNELS 6 Xposition Yposition Zposition Zrotation Yrotation Xrotation 
	JOINT LHipJoint
	{
		OFFSET 0 0 0
		CHANNELS 3 Zrotation Yrotation Xrotation
		JOINT LeftUpLeg
		{
			OFFSET 1.55766 -1.60504 1.11378
			CHANNELS 3 Zrotation Yrotation Xrotation
			JOINT LeftLeg
			{
				OFFSET 2.29047 -6.29302 0.00000
				CHANNELS 3 Zrotation Yrotation Xrotation
				JOINT LeftFoot
				{
					OFFSET 2.52265 -6.93093 0.00000
					CHANNELS 3 Zrotation Yrotation Xrotation
					JOINT LeftToeBase
					{
						OFFSET 0.17633 -0.48446 2.02656
						CHANNELS 3 Zrotation Yrotation Xrotation
						End Site
						{
							OFFSET 0.00000 -0.00000 1.04989
						}
					}
				}
			}
		}
	}
	JOINT RHipJoint
	{
		OFFSET 0 0 0
		CHANNELS 3 Zrotation Yrotation Xrotation
		JOINT RightUpLeg
		{
			OFFSET -1.48599 -1.60504 1.11378
			CHANNELS 3 Zrotation Yrotation Xrotation
			JOINT RightLeg
			{
				OFFSET -2.27280 -6.24448 0.00000
				CHANNELS 3 Zrotation Yrotation Xrotation
				JOINT RightFoot
				{
					OFFSET -2.50834 -6.89161 0.00000
					CHANNELS 3 Zrotation Yrotation Xrotation
					JOINT RightToeBase
					{
						OFFSET -0.26967 -0.74090 2.08741
						CHANNELS 3 Zrotation Yrotation Xrotation
						End Site
						{
							OFFSET -0.00000 -0.00000 1.10614
						}
					}
				}
			}
		}
	}
	JOINT LowerBack
	{
		OFFSET 0 0 0
		CHANNELS 3 Zrotation Yrotation Xrotation
		JOINT Spine
		{
			OFFSET 0.06481 2.02437 -0.08472
			CHANNELS 3 Zrotation Yrotation Xrotation
			JOINT Spine1
			{
				OFFSET 0.00015 1.96711 0.18069
				CHANNELS 3 Zrotation Yrotation Xrotation
				JOINT Neck
				{
					OFFSET 0 0 0
					CHANNELS 3 Zrotation Yrotation Xrotation
					JOINT Neck1
					{
						OFFSET -0.29961 1.68293 -0.13041
						CHANNELS 3 Zrotation Yrotation Xrotation
						JOINT Head
						{
							OFFSET 0.59697 1.61501 -0.14669
							CHANNELS 3 Zrotation Yrotation Xrotation
							End Site
							{
								OFFSET 0.22973 1.74906 -0.10148
							}
						}
					}
				}
				JOINT LeftShoulder
				{
					OFFSET 0 0 0
					CHANNELS 3 Zrotation Yrotation Xrotation
					JOINT LeftArm
					{
						OFFSET 3.37968 1.02893 0.31147
						CHANNELS 3 Zrotation Yrotation Xrotation
						JOINT LeftForeArm
						{
							OFFSET 5.19807 -0.00000 -0.00000
							CHANNELS 3 Zrotation Yrotation Xrotation
							JOINT LeftHand
							{
								OFFSET 3.09370 -0.00000 -0.00000
								CHANNELS 3 Zrotation Yrotation Xrotation
								JOINT LeftFingerBase
								{
									OFFSET 0 0 0
									CHANNELS 3 Zrotation Yrotation Xrotation
									JOINT LeftHandIndex1
									{
										OFFSET 0.67263 -0.00000 -0.00000
										CHANNELS 3 Zrotation Yrotation Xrotation
										End Site
										{
											OFFSET 0.54229 -0.00000 -0.00000
										}
									}
								}
								JOINT LThumb
								{
									OFFSET 0 0 0
									CHANNELS 3 Zrotation Yrotation Xrotation
									End Site
									{
										OFFSET 0.55057 -0.00000 0.55057
									}
								}
							}
						}
					}
				}
				JOINT RightShoulder
				{
					OFFSET 0 0 0
					CHANNELS 3 Zrotation Yrotation Xrotation
					JOINT RightArm
					{
						OFFSET -3.38254 0.96355 -0.16120
						CHANNELS 3 Zrotation Yrotation Xrotation
						JOINT RightForeArm
						{
							OFFSET -5.45222 -0.00000 -0.00000
							CHANNELS 3 Zrotation Yrotation Xrotation
							JOINT RightHand
							{
								OFFSET -3.01284 -0.00000 -0.00000
								CHANNELS 3 Zrotation Yrotation Xrotation
								JOINT RightFingerBase
								{
									OFFSET 0 0 0
									CHANNELS 3 Zrotation Yrotation Xrotation
									JOINT RightHandIndex1
									{
										OFFSET -0.62230 -0.00000 -0.00000
										CHANNELS 3 Zrotation Yrotation Xrotation
										End Site
										{
											OFFSET -0.50171 -0.00000 -0.00000
										}
									}
								}
								JOINT RThumb
								{
									OFFSET 0 0 0
									CHANNELS 3 Zrotation Yrotation Xrotation
									End Site
									{
										OFFSET -0.50937 -0.00000 0.50937
									}
								}
							}
						}
					}
				}
			}
		}
	}
}
MOTION
Frames: 5
Frame Time: .0083333
4.8687 20.7601 10.3821 -6.1658 21.7503 18.7000 0.0000 0.0000 0.0000 -21.0834 7.2399 -33.5103 2.7718 10.3161 30.0066 0.8757 11.5582 -25.3614 0.3531 -3.8178 -10.5647 0.0000 0.0000 0.0000 31.0172 -0.1708 -38.2826 -2.7879 -10.3435 30.0963 -0.6683 1.4627 -15.0130 -0.4383 4.2483 -11.7764 -0.7200 0.6459 -3.2677 -1.0786 0.8727 -9.0337 -0.7633 0.4756 -7.5997 -29.8365 -12.1490 21.2533 44.1238 -23.2248 -6.2595 22.1206 -14.4108 4.9740 0.0000 0.0000 0.0000 -74.9438 11.4921 29.4595 19.8909 -30.5106 -5.4758 -0.0000 0.0000 -39.9068 21.9363 -12.3416 -4.9199 -7.1250 0.0000 -0.0000 -3.6780 16.7253 2.4691 0.0000 0.0000 0.0000 92.7890 -8.0916 2.9827 -10.6063 17.6823 -1.6544 0.0000 0.0000 36.4910 -11.4399 -1.8976 0.3839 7.1250 -0.0000 -0.0000 12.1035 -31.7631 3.9977
4.8730 20.7543 10.4067 -6.1131 21.1484 18.7852 0.0000 0.0000 0.0000 -21.2300 7.5169 -33.5068 2.7724 10.3171 30.0099 0.8661 11.8375 -25.5431 0.3563 -3.8349 -10.6127 0.0000 0.0000 0.0000 31.0137 -0.1029 -38.0518 -2.7415 -10.2643 29.8370 -0.6655 1.7735 -14.9077 -0.4173 4.1462 -11.4885 -0.6185 0.5575 -3.3968 -1.0791 0.7543 -9.0392 -0.8145 0.4086 -7.5304 -29.8916 -12.1004 21.0964 43.9294 -23.2143 -5.9322 21.9926 -14.3672 5.0493 -0.0000 -0.0000 0.0000 -75.0224 11.2952 29.6449 20.1015 -30.7644 -5.5831 -0.0000 0.0000 -39.9475 21.6034 -12.4211 -4.8685 -7.1250 0.0000 -0.0000 -3.9122 16.6726 2.6315 -0.0000 -0.0000 0.0000 92.7428 -8.3191 2.7720 -10.5108 17.5346 -1.6255 0.0000 0.0000 36.9263 -11.0884 -1.9133 0.3749 7.1250 -0.0000 -0.0000 12.3828 -31.7691 4.0920
4.8781 20.7493 10.4329 -6.0517 20.5637 18.8597 0.0000 0.0000 0.0000 -21.3891 7.8081 -33.4756 2.7686 10.3106 29.9886 0.8539 12.1110 -25.7030 0.3641 -3.8763 -10.7289 0.0000 0.0000 0.0000 31.0165 -0.1134 -37.8683 -2.7051 -10.2016 29.6321 -0.6623 2.2021 -14.7805 -0.3887 4.0037 -11.0872 -0.5148 0.4720 -3.5301 -1.0792 0.6398 -9.0401 -0.8670 0.3434 -7.4542 -29.9490 -12.0522 20.9435 43.7245 -23.2028 -5.6053 21.8595 -14.3225 5.1215 0.0000 -0.0000 0.0000 -75.1179 11.0870 29.8143 20.3094 -31.0133 -5.6899 -0.0000 0.0000 -39.9669 21.2974 -12.4925 -4.8201 -7.1250 0.0000 -0.0000 -4.1273 16.6259 2.7811 0.0000 -0.0000 0.0000 92.6802 -8.5529 2.6183 -10.4337 17.4151 -1.6023 0.0000 0.0000 37.2999 -10.7355 -1.9269 0.3653 7.1250 -0.0000 -0.0000 12.6628 -31.7727 4.1875
4.8832 20.7449 10.4600 -5.9714 19.9884 18.9253 0.0000 0.0000 0.0000 -21.5667 8.0994 -33.4092 2.7590 10.2943 29.9351 0.8362 12.3992 -25.8372 0.3759 -3.9380 -10.9023 0.0000 0.0000 0.0000 31.0072 -0.1733 -37.7329 -2.6803 -10.1587 29.4921 -0.6559 2.7245 -14.6135 -0.3519 3.8112 -10.5462 -0.4292 0.3886 -3.6494 -1.0775 0.5275 -9.0362 -0.9081 0.2807 -7.3816 -30.0091 -12.0073 20.7851 43.5093 -23.1919 -5.2817 21.7191 -14.2767 5.1922 0.0000 0.0000 0.0000 -75.2443 10.8553 29.9364 20.5022 -31.2427 -5.7896 -0.0000 0.0000 -39.9396 21.0178 -12.5514 -4.7730 -7.1250 0.0000 -0.0000 -4.3233 16.5897 2.9174 0.0000 0.0000 0.0000 92.5921 -8.7791 2.5314 -10.3688 17.3144 -1.5830 0.0000 0.0000 37.5979 -10.3881 -1.9310 0.3539 7.1250 -0.0000 -0.0000 12.9370 -31.7670 4.2841
4.8891 20.7415 10.4886 -5.8823 19.4317 18.9753 0.0000 0.0000 0.0000 -21.7510 8.3866 -33.2978 2.7443 10.2691 29.8526 0.8160 12.6910 -25.9599 0.3894 -4.0071 -11.0967 0.0000 0.0000 0.0000 30.9925 -0.2934 -37.6391 -2.6670 -10.1353 29.4161 -0.6462 3.3331 -14.4187 -0.3121 3.5914 -9.9297 -0.3437 0.3068 -3.7672 -1.0738 0.4172 -9.0222 -0.9474 0.2190 -7.2991 -30.0675 -11.9650 20.6182 43.2872 -23.1772 -4.9668 21.5739 -14.2276 5.2588 0.0000 0.0000 0.0000 -75.4042 10.5917 29.9979 20.6675 -31.4382 -5.8756 -0.0000 0.0000 -39.8345 20.7515 -12.6129 -4.7297 -7.1250 0.0000 -0.0000 -4.5100 16.5496 3.0481 0.0000 0.0000 0.0000 92.4884 -9.0011 2.4997 -10.3198 17.2383 -1.5684 0.0000 0.0000 37.8290 -10.0509 -1.9307 0.3421 7.1250 -0.0000 -0.0000 13.2022 -31.7569 4.3794
